PathFileType	4	(X/Y/Z)	/Users/itak/Documents/Research/Walk-IL/dataset/trc/00043_00004.trc
DataRate	CameraRate	NumFrames	NumMarkers	Units	OrigDataRate	OrigDataStartFrame	OrigNumFrames
100.000000	100.000000	4	53	mm	100.000000	296	474
Frame#	Time	RPSI			LPSI			L3			STRN			T10			C7			CLAV			RBAK			LBAK			LSHO			LUPA			LAEL			LAOL			LWTS			LWPS			LFRA			LIFD			LHPS			LHTS			RSHO			RUPA			RAEL			RAOL			RWTS			RWPS			RFRA			RIFD			RHTS			RHPS			RBHD			LFHD			RFHD			LBHD			LHIP			RHIP			RASI			LASI			LKNE			LTHI			LANK			LTIP			LTOE			LMT1			LMT5			LHEE			RKNE			RTHI			RANK			RTIP			RTOE			RMT1			RMT5			RHEE			
		X1	Y1	Z1	X2	Y2	Z2	X3	Y3	Z3	X4	Y4	Z4	X5	Y5	Z5	X6	Y6	Z6	X7	Y7	Z7	X8	Y8	Z8	X9	Y9	Z9	X10	Y10	Z10	X11	Y11	Z11	X12	Y12	Z12	X13	Y13	Z13	X14	Y14	Z14	X15	Y15	Z15	X16	Y16	Z16	X17	Y17	Z17	X18	Y18	Z18	X19	Y19	Z19	X20	Y20	Z20	X21	Y21	Z21	X22	Y22	Z22	X23	Y23	Z23	X24	Y24	Z24	X25	Y25	Z25	X26	Y26	Z26	X27	Y27	Z27	X28	Y28	Z28	X29	Y29	Z29	X30	Y30	Z30	X31	Y31	Z31	X32	Y32	Z32	X33	Y33	Z33	X34	Y34	Z34	X35	Y35	Z35	X36	Y36	Z36	X37	Y37	Z37	X38	Y38	Z38	X39	Y39	Z39	X40	Y40	Z40	X41	Y41	Z41	X42	Y42	Z42	X43	Y43	Z43	X44	Y44	Z44	X45	Y45	Z45	X46	Y46	Z46	X47	Y47	Z47	X48	Y48	Z48	X49	Y49	Z49	X50	Y50	Z50	X51	Y51	Z51	X52	Y52	Z52	X53	Y53	Z53	

297	2.96	-237.1474914550781	1054.637939453125	418.2159118652344	-109.7052841186523	1051.837646484375	319.6477966308594	-172.3381805419922	1113.91943359375	355.0774230957031	-48.19428253173828	1314.604370117188	545.316162109375	-178.1654663085938	1258.378662109375	329.2432556152344	-139.9452362060547	1526.4228515625	360.9332885742188	-65.87757873535156	1439.562622070312	503.2014465332031	-236.5935363769531	1390.853637695312	358.789794921875	-65.39688110351562	1484.37939453125	297.3319702148438	50.07533264160156	1493.05908203125	347.9096069335938	101.4491195678711	1369.101684570312	278.5228881835938	125.636962890625	1154.68408203125	253.1881713867188	19.49208641052246	1140.048828125	252.7606964111328	130.769775390625	894.3020629882812	337.4189147949219	123.727165222168	887.2318725585938	248.7126159667969	139.4172668457031	1038.821899414062	251.9035034179688	133.9732055664062	707.5234375	353.0188293457031	144.4426422119141	796.3919677734375	268.507568359375	155.8781433105469	800.6600341796875	339.2317504882812	-252.7117309570312	1515.409790039062	514.7639770507812	-323.1060180664062	1449.327270507812	537.554443359375	-382.1720886230469	1187.829467773438	516.0089111328125	-296.8528442382812	1152.707153320312	475.1644592285156	-314.4161376953125	925.2172241210938	623.4915161132812	-402.5315551757812	914.866455078125	595.51904296875	-395.7911376953125	1112.220458984375	535.72265625	-298.5296630859375	740.4395141601562	634.0650634765625	-315.7322998046875	817.4299926757812	661.37451171875	-386.3797607421875	813.4442138671875	634.684814453125	-40.63055419921875	1708.5439453125	385.9036865234375	-115.5975570678711	1727.753173828125	590.540283203125	-20.94850730895996	1731.084350585938	565.291259765625	-178.6145172119141	1702.307373046875	428.4011535644531	41.68864822387695	957.5440673828125	336.9164733886719	-249.7898101806641	943.32080078125	573.5394897460938	-133.2166442871094	988.152587890625	606.7789916992188	53.19254684448242	1010.9716796875	466.50634765625	81.76801300048828	525.615478515625	462.7884826660156	84.36328887939453	657.043212890625	403.3242797851562	54.6656379699707	36.94374847412109	362.636474609375	71.30709075927734	284.581787109375	385.0111694335938	85.95683288574219	37.01822662353516	589.3004150390625	47.40700531005859	44.56655502319336	541.4368286132812	124.8687744140625	37.90983200073242	466.9405212402344	-22.54863548278809	43.80875015258789	321.2734680175781	-135.6192626953125	520.1316528320312	662.8223266601562	-206.9737701416016	786.16748046875	619.8654174804688	-362.7163391113281	218.7878723144531	334.9686279296875	-183.2686920166016	416.6766052246094	600.5706787109375	-246.3463439941406	50.24587631225586	448.4978332519531	-243.7350158691406	97.66377258300781	394.8432922363281	-329.3959655761719	112.807258605957	437.4497375488281	-344.7566528320312	253.8063354492188	275.5651550292969	
298	2.97	-232.5706634521484	1055.453491210938	420.9377136230469	-103.8754959106445	1052.497802734375	323.7837219238281	-166.1545867919922	1114.73486328125	358.8654479980469	-43.94381332397461	1315.068481445312	550.2109985351562	-172.0101318359375	1259.180908203125	332.764892578125	-133.7833404541016	1527.167358398438	365.3304138183594	-61.1479377746582	1440.12646484375	508.1510925292969	-230.4870147705078	1391.64892578125	361.9619750976562	-58.66371536254883	1485.240600585938	302.32275390625	56.24397659301758	1493.85888671875	354.0254821777344	108.5723037719727	1370.101440429688	285.0169067382812	133.8295440673828	1155.749145507812	260.1307678222656	27.80731010437012	1140.582397460938	258.7306518554688	140.0579681396484	896.0641479492188	346.0231018066406	133.6367034912109	888.2637939453125	257.3349304199219	148.3500823974609	1040.00048828125	259.5452880859375	144.5161895751953	709.45654296875	363.0447387695312	154.8273162841797	797.7430419921875	277.9553833007812	165.8798980712891	802.6685791015625	348.6903991699219	-248.0692291259766	1515.954711914062	517.9412841796875	-318.7930908203125	1449.89990234375	539.869873046875	-377.9195556640625	1188.59423828125	517.4236450195312	-292.3183898925781	1153.332275390625	477.4389343261719	-312.4527282714844	925.5231323242188	625.0402221679688	-400.2674560546875	915.5671997070312	595.8930053710938	-392.2015991210938	1113.050170898438	536.6830444335938	-297.366455078125	740.5512084960938	635.3605346679688	-314.731689453125	817.6210327148438	662.6776733398438	-384.9399108886719	813.9859619140625	635.026611328125	-34.81642532348633	1709.17236328125	391.2491455078125	-111.3753433227539	1728.285888671875	595.3231201171875	-16.53266906738281	1731.59326171875	570.7867431640625	-173.2241821289062	1702.99658203125	432.6795654296875	46.73236846923828	957.7674560546875	341.8437805175781	-246.1879119873047	944.6365966796875	576.8458251953125	-129.6568298339844	989.0504760742188	610.44970703125	58.0535774230957	1011.060974121094	471.6339111328125	83.98329162597656	524.8712158203125	464.240966796875	87.46978759765625	656.7080078125	405.9283142089844	54.65011596679688	36.97589492797852	362.64990234375	72.28298187255859	284.2899475097656	385.5931091308594	86.11669921875	37.0673713684082	589.28857421875	47.42521286010742	44.56517791748047	541.4412841796875	124.8539199829102	37.90957641601562	466.9394836425781	-22.57284355163574	43.82559585571289	321.2578125	-129.2071990966797	523.724365234375	672.2141723632812	-203.0048980712891	788.457275390625	625.0986328125	-345.6838684082031	211.3109741210938	346.7161865234375	-174.585205078125	418.5469055175781	610.8750610351562	-227.0198822021484	50.55288696289062	469.2048034667969	-224.7583923339844	95.43669891357422	413.5890808105469	-311.4400024414062	110.2094192504883	454.0067443847656	-327.2444152832031	244.3578643798828	286.3783264160156	
299	2.98	-228.0128631591797	1056.201293945312	423.7456970214844	-98.14572143554688	1053.079223632812	327.9501037597656	-160.0627593994141	1115.44873046875	362.6888427734375	-39.78219223022461	1315.441040039062	555.1576538085938	-165.8458709716797	1259.9267578125	336.3722229003906	-127.6937026977539	1527.822143554688	369.7826538085938	-56.51480102539062	1440.585571289062	513.150146484375	-224.4551239013672	1392.343627929688	365.1732788085938	-52.00714492797852	1485.988403320312	307.3858642578125	62.33122253417969	1494.527587890625	360.2293701171875	115.5897827148438	1370.97412109375	291.5935974121094	141.8582305908203	1156.6982421875	267.0993347167969	35.99262237548828	1141.030029296875	264.64013671875	149.0144348144531	897.7733154296875	354.7610778808594	143.3532562255859	889.1991577148438	266.0925598144531	157.0809783935547	1041.063720703125	267.2565612792969	154.5906677246094	711.3759765625	373.3410034179688	164.9478759765625	799.0150756835938	287.6281127929688	175.5000610351562	804.6397705078125	358.3749084472656	-243.5378570556641	1516.383056640625	521.1475219726562	-314.5480346679688	1450.328491210938	542.2211303710938	-373.6533203125	1189.189331054688	518.8948364257812	-287.8067321777344	1153.808227539062	479.7767639160156	-310.4342041015625	925.6959838867188	626.67431640625	-397.9007873535156	916.1142578125	596.340576171875	-388.5629577636719	1113.730834960938	537.7192993164062	-296.1566467285156	740.5556030273438	636.7512817382812	-313.6246337890625	817.70556640625	664.0645751953125	-383.4515991210938	814.4022216796875	635.4230346679688	-29.14105224609375	1709.710327148438	396.66259765625	-107.2962112426758	1728.719970703125	600.1622924804688	-12.27811527252197	1732.030395507812	576.347412109375	-167.9466400146484	1703.553588867188	437.0140075683594	51.70245742797852	957.913330078125	346.7675476074219	-242.6277313232422	945.8881225585938	580.18212890625	-126.1131057739258	989.8509521484375	614.1444702148438	62.84577178955078	1011.069458007812	476.7554626464844	86.16257476806641	524.1202392578125	465.6828002929688	90.50820159912109	656.3543701171875	408.5243835449219	54.63079071044922	37.00456237792969	362.6648254394531	73.22623443603516	283.998046875	386.1870727539062	86.26346588134766	37.10087203979492	589.2757568359375	47.44374084472656	44.56172943115234	541.4459228515625	124.8426818847656	37.90807723999023	466.9369812011719	-22.60428619384766	43.84988403320312	321.2394714355469	-123.2226486206055	527.2767333984375	681.4612426757812	-199.1227111816406	790.7125854492188	630.3478393554688	-328.5989379882812	202.8255004882812	359.49755859375	-166.285888671875	420.1797180175781	621.2320556640625	-207.2496948242188	50.65794372558594	490.3113098144531	-205.5202331542969	92.98602294921875	432.8891296386719	-293.1766967773438	106.8271102905273	471.22216796875	-309.8331604003906	233.9973449707031	298.3155212402344	
300	2.99	-223.4478149414062	1056.875732421875	426.6654052734375	-92.52594757080078	1053.575927734375	332.1503295898438	-154.1095275878906	1116.069946289062	366.5344543457031	-35.70869445800781	1315.725463867188	560.1541137695312	-159.6620178222656	1260.610107421875	340.0775756835938	-121.6772918701172	1528.389038085938	374.2890625	-51.97451400756836	1440.94189453125	518.1954956054688	-218.4977416992188	1392.939819335938	368.4313049316406	-45.43569564819336	1486.619750976562	312.523193359375	68.33019256591797	1495.06982421875	366.5177307128906	122.5032272338867	1371.723510742188	298.2598571777344	149.7302398681641	1157.529541015625	274.1145324707031	44.05600357055664	1141.395629882812	270.5145263671875	157.6253509521484	899.4127197265625	363.6200256347656	152.8639373779297	890.0404052734375	274.9722595214844	165.6167602539062	1042.010009765625	275.0528259277344	164.2213134765625	713.2674560546875	383.868408203125	174.7948150634766	800.2069091796875	297.495361328125	184.7239379882812	806.5570678710938	368.2591247558594	-239.1083221435547	1516.701904296875	524.390869140625	-310.3665161132812	1450.624633789062	544.61962890625	-369.3801574707031	1189.627807617188	520.4309692382812	-283.3139038085938	1154.14794921875	482.1866149902344	-308.359130859375	925.74267578125	628.3862915039062	-395.43310546875	916.5159912109375	596.8678588867188	-384.8549499511719	1114.268920898438	538.8514404296875	-294.8869018554688	740.4636840820312	638.2222900390625	-312.4019165039062	817.6845703125	665.5200805664062	-381.8949279785156	814.6944580078125	635.8850708007812	-23.60268592834473	1710.158203125	402.1439208984375	-103.3498306274414	1729.0576171875	605.0575561523438	-8.17451286315918	1732.390747070312	581.9710693359375	-162.7715606689453	1703.985229492188	441.4042053222656	56.60618209838867	957.9783935546875	351.6968688964844	-239.1124572753906	947.0739135742188	583.5542602539062	-122.5808792114258	990.558837890625	617.8787231445312	67.55620574951172	1010.995544433594	481.8860473632812	88.30970764160156	523.3638916015625	467.1432800292969	93.47074127197266	655.9840087890625	411.1432800292969	54.60684967041016	37.0295524597168	362.6816101074219	74.14318084716797	283.7070922851562	386.8020324707031	86.39580535888672	37.12015151977539	589.2650756835938	47.4627571105957	44.55584335327148	541.4510498046875	124.8352661132812	37.90333557128906	466.9333801269531	-22.6451301574707	43.88439559936523	321.219482421875	-117.6594696044922	530.7669067382812	690.5558471679688	-195.338623046875	792.9137573242188	635.59912109375	-311.4588928222656	193.5430755615234	373.3108215332031	-158.3908538818359	421.606689453125	631.6290283203125	-187.3622589111328	50.63838958740234	511.9572448730469	-186.2367095947266	90.37107849121094	452.8446044921875	-274.7941589355469	102.891731262207	489.1663818359375	-292.4545593261719	222.9015350341797	311.3514404296875	
